name C:\flash-running\Simulations\OCP\..\results\trackingSim\trackingSim_10-Nov-2020_kinematics.mot
datacolumns 32
datarows 13
range 0.90800000 0.99824000
endheader
time	pelvis_tilt	pelvis_list	pelvis_rotation	pelvis_tx	pelvis_ty	pelvis_tz	hip_flexion_l	hip_adduction_l	hip_rotation_l	hip_flexion_r	hip_adduction_r	hip_rotation_r	knee_angle_l	knee_angle_r	ankle_angle_l	ankle_angle_r	subtalar_angle_l	subtalar_angle_r	lumbar_extension	lumbar_bending	lumbar_rotation	arm_flex_l	arm_add_l	arm_rot_l	arm_flex_r	arm_add_r	arm_rot_r	elbow_flex_l	elbow_flex_r	pro_sup_l	pro_sup_r	
          0.90800000	          2.74717248	         -8.34090966	          7.16040111	         -1.87371785	          0.91271943	          0.24246936	          8.71394932	         -6.65933192	          3.79598263	         22.70223335	          6.95200355	        -11.48826894	        -56.29775979	        -22.29300056	         -2.30369464	        -11.85674569	         -8.20998230	          9.93266872	        -12.52713987	          8.21804249	         -5.44988165	        -24.81370049	        -21.58203252	          3.29397109	        -56.17826140	        -27.31727995	        -10.80717977	        114.56146887	         94.27652130	         86.51662706	         86.51662706	
          0.91552000	          2.87032430	         -8.37809988	          6.84565078	         -1.85206353	          0.90762384	          0.24214838	          9.21822642	         -7.01230242	          4.10960993	         22.30941478	          7.05526555	        -12.21297234	        -59.01317655	        -25.30154569	         -2.81167815	         -4.75916359	         -6.32344002	          9.92177008	        -12.93290471	          8.69936319	         -4.73973747	        -24.11308079	        -21.31609825	          3.60768250	        -53.53177010	        -28.45873678	        -10.52379733	        111.84347987	         94.97957357	         86.51662706	         86.51662706	
          0.92304000	          2.99500533	         -8.61174673	          6.57169883	         -1.83014435	          0.90306977	          0.24195575	          9.70393694	         -7.61283667	          4.41377981	         21.77991799	          7.44165778	        -12.44505421	        -61.53589708	        -27.87303617	         -4.72397510	          1.20987674	         -5.25076006	          9.91844253	        -13.27257130	          9.35448743	         -4.01124745	        -23.83498053	        -21.07572664	          3.91783203	        -51.34924751	        -29.64252247	        -10.24036945	        109.34440605	         95.64680619	         86.51662706	         86.51662706	
          0.93056000	          3.25152890	         -9.14382677	          6.35413307	         -1.80772531	          0.89917843	          0.24173832	         10.08809191	         -8.56677585	          4.78445533	         20.98792867	          8.25154982	        -12.18445953	        -63.87241789	        -30.08555224	         -8.13285069	          6.24000946	         -4.17323941	         10.11411064	        -13.65874446	         10.32589286	         -3.19109926	        -24.21058352	        -20.79559746	          4.35667565	        -49.75549080	        -30.68501393	         -9.89031789	        106.37382421	         95.69318535	         86.51662706	         86.51662706	
          0.93808000	          3.59195126	         -9.85380424	          6.18883470	         -1.78519781	          0.89584269	          0.24150462	         10.67931753	         -9.67037047	          5.18756940	         20.03917474	          9.33510481	        -11.62983510	        -66.92776347	        -32.03163357	        -11.54686069	         10.37442552	         -2.89932825	         10.31128773	        -14.11489149	         11.45107548	         -2.25366902	        -24.88546892	        -20.55787232	          4.85819264	        -48.29059853	        -31.39153950	         -9.33739888	        102.55663994	         94.63242766	         86.51662706	         86.51662706	
          0.94560000	          3.77836193	        -10.44529590	          5.99548345	         -1.76336217	          0.89274470	          0.24120455	         11.74723864	        -10.50959893	          5.55509691	         19.15257879	         10.27005373	        -11.09506366	        -70.83130882	        -33.69983260	        -13.47455799	         13.90333386	         -1.61942195	         10.48370766	        -14.52957576	         12.36677188	         -1.27309091	        -25.34711189	        -20.40202879	          5.34309699	        -46.54611069	        -32.07125804	         -8.68489632	         98.94411958	         93.51057275	         86.51662706	         86.51662706	
          0.95312000	          3.74526213	        -10.77046229	          5.73583432	         -1.74266526	          0.88979345	          0.24072951	         13.17127727	        -10.88633685	          5.95824401	         18.38352986	         10.83195453	        -10.65868341	        -74.76585014	        -35.12233745	        -13.91594335	         17.08518842	         -0.14609987	         10.87388131	        -14.91119865	         12.92814413	         -0.33509288	        -25.30960354	        -20.31770813	          5.76296916	        -44.34169791	        -33.05048992	         -8.21975464	         96.36289612	         93.41482931	         86.51662706	         86.51662706	
          0.96064000	          3.73055855	        -10.90325604	          5.49010681	         -1.72283819	          0.88742525	          0.24007859	         14.68281011	        -10.95521259	          6.34527011	         17.50540495	         11.14616316	        -10.25675831	        -78.64764336	        -36.31601733	        -12.87101904	         19.84541508	          1.27016461	         11.34017980	        -15.46379541	         13.25396631	          0.56927881	        -24.76662201	        -20.27578944	          6.10594195	        -41.59177333	        -34.11268022	         -7.84728938	         94.17247946	         93.90464512	         86.51662706	         86.51662706	
          0.96816000	          3.91675635	        -10.92744295	          5.29648723	         -1.70320399	          0.88611225	          0.23918441	         15.99842179	        -10.88015500	          6.65085839	         16.22740955	         11.35105010	         -9.83118669	        -82.30324443	        -37.14152318	        -10.33979821	         22.17633159	          2.81280032	         11.79670979	        -16.27274482	         13.48288968	          1.48487722	        -24.13269184	        -20.18185371	          6.49968556	        -38.56991302	        -35.02864794	         -7.40333042	         91.71774409	         94.48952175	         86.51662706	         86.51662706	
          0.97568000	          4.12349365	        -10.89967970	          5.12321841	         -1.68340163	          0.88564557	          0.23812107	         17.29334010	        -10.71346111	          6.89414992	         14.70408529	         11.50888425	         -9.34341374	        -85.67115574	        -37.55498836	         -7.42313984	         24.10376900	          4.29029184	         12.18453207	        -17.06587914	         13.67421316	          2.38297685	        -23.84418669	        -20.10607537	          6.90625608	        -35.58194481	        -35.80348481	         -6.96011581	         89.08623715	         95.17507551	         86.51662706	         86.51662706	
          0.98320000	          4.21406906	        -10.83802248	          4.97630285	         -1.66334318	          0.88580203	          0.23702947	         18.75227803	        -10.47341879	          7.11288283	         13.08663308	         11.63147079	         -8.80750360	        -88.72173543	        -37.56268604	         -5.33280060	         25.65712652	          5.53902849	         12.48427284	        -17.65990241	         13.81950534	          3.21728283	        -23.95076951	        -20.07321696	          7.30210610	        -32.77166626	        -36.45562284	         -6.58074768	         86.44370910	         95.97204687	         86.51662706	         86.51662706	
          0.99072000	          4.18063586	        -10.73846334	          4.87945441	         -1.64303699	          0.88649978	          0.23601686	         20.38317620	        -10.15810361	          7.33367585	         11.40196035	         11.71103645	         -8.25939124	        -91.45084761	        -37.18903915	         -4.05158078	         26.86178577	          6.67814381	         12.71596212	        -18.03214739	         13.89327350	          3.97655507	        -24.26947266	        -20.11095149	          7.66151038	        -30.16026251	        -36.97076818	         -6.29491006	         83.98107397	         96.89155427	         86.51662706	         86.51662706	
          0.99824000	          4.04296443	        -10.56155323	          4.83350201	         -1.62252396	          0.88769321	          0.23514959	         22.13658677	         -9.72593486	          7.52799225	          9.65122669	         11.70076666	         -7.72581935	        -93.85112401	        -36.47762695	         -3.27015720	         27.75335163	          7.56771606	         12.91896100	        -18.20740258	         13.83941060	          4.65631709	        -24.70910799	        -20.23753465	          7.97251404	        -27.75482946	        -37.33414153	         -6.11948826	         81.80361345	         97.96792502	         86.51662706	         86.51662706	
